STARTFONT 2.1
FONT -Adobe-Helvetica-Bold-R-Normal--17-120-100-100-P-92-ISO8859-2
SIZE 12 100 100
FONTBOUNDINGBOX 18 20 -2 -4
COMMENT $XConsortium: helvB12.bdf,v 1.7 95/01/26 17:53:56 gildea Exp $
COMMENT 
COMMENT +
COMMENT  Copyright 1984-1989, 1994 Adobe Systems Incorporated.
COMMENT  Copyright 1988, 1994 Digital Equipment Corporation.
COMMENT
COMMENT  Adobe is a trademark of Adobe Systems Incorporated which may be
COMMENT  registered in certain jurisdictions.
COMMENT  Permission to use these trademarks is hereby granted only in
COMMENT  association with the images described in this file.
COMMENT
COMMENT  Permission to use, copy, modify, distribute and sell this software
COMMENT  and its documentation for any purpose and without fee is hereby
COMMENT  granted, provided that the above copyright notices appear in all
COMMENT  copies and that both those copyright notices and this permission
COMMENT  notice appear in supporting documentation, and that the names of
COMMENT  Adobe Systems and Digital Equipment Corporation not be used in
COMMENT  advertising or publicity pertaining to distribution of the software
COMMENT  without specific, written prior permission.  Adobe Systems and
COMMENT  Digital Equipment Corporation make no representations about the
COMMENT  suitability of this software for any purpose.  It is provided "as
COMMENT  is" without express or implied warranty.
COMMENT -
COMMENT  
COMMENT  Translation to ISO8859-2 by Cub Soft;  Petr.Kolar@vslib.cz
COMMENT  
STARTPROPERTIES 28
FOUNDRY "Adobe"
FAMILY_NAME "Helvetica"
WEIGHT_NAME "Bold"
SLANT "R"
SETWIDTH_NAME "Normal"
ADD_STYLE_NAME ""
PIXEL_SIZE 17
POINT_SIZE 120
RESOLUTION_X 100
RESOLUTION_Y 100
SPACING "P"
AVERAGE_WIDTH 92
CHARSET_REGISTRY "ISO8859"
CHARSET_ENCODING "2"
CAP_HEIGHT 12
X_HEIGHT 9
FONT_ASCENT 14
FONT_DESCENT 4
FACE_NAME "Helvetica Bold"

STARTCHAR space
ENCODING 32
SWIDTH 278 0
DWIDTH 5 0
BBX 1 1 0 0
BITMAP
00
ENDCHAR
STARTCHAR exclam
ENCODING 33
SWIDTH 333 0
DWIDTH 6 0
BBX 2 12 2 0
BITMAP
c0
c0
c0
c0
c0
c0
80
80
80
00
c0
c0
ENDCHAR
STARTCHAR quotedbl
ENCODING 34
SWIDTH 474 0
DWIDTH 8 0
BBX 5 4 1 8
BITMAP
d8
d8
d8
48
ENDCHAR
STARTCHAR numbersign
ENCODING 35
SWIDTH 556 0
DWIDTH 9 0
BBX 9 12 0 0
BITMAP
1b00
1b00
1b00
7f80
7f80
3600
3600
ff00
ff00
6c00
6c00
6c00
ENDCHAR
STARTCHAR dollar
ENCODING 36
SWIDTH 556 0
DWIDTH 9 0
BBX 7 14 1 -1
BITMAP
10
7c
fe
d6
d0
f0
78
3c
1e
16
d6
fe
7c
10
ENDCHAR
STARTCHAR percent
ENCODING 37
SWIDTH 889 0
DWIDTH 14 0
BBX 13 12 0 0
BITMAP
3040
7880
cc80
cd00
7900
3200
0260
04f0
0598
0998
08f0
1060
ENDCHAR
STARTCHAR ampersand
ENCODING 38
SWIDTH 722 0
DWIDTH 12 0
BBX 10 12 1 0
BITMAP
3c00
7e00
6600
6600
3c00
38c0
7dc0
cf80
c700
c700
7f80
39c0
ENDCHAR
STARTCHAR apostrophe
ENCODING 39
SWIDTH 278 0
DWIDTH 5 0
BBX 2 4 2 8
BITMAP
c0
c0
40
80
ENDCHAR
STARTCHAR parenleft
ENCODING 40
SWIDTH 333 0
DWIDTH 6 0
BBX 4 15 1 -3
BITMAP
30
70
60
c0
c0
c0
c0
c0
c0
c0
c0
c0
60
70
30
ENDCHAR
STARTCHAR parenright
ENCODING 41
SWIDTH 333 0
DWIDTH 6 0
BBX 4 15 0 -3
BITMAP
c0
e0
60
30
30
30
30
30
30
30
30
30
60
e0
c0
ENDCHAR
STARTCHAR asterisk
ENCODING 42
SWIDTH 389 0
DWIDTH 6 0
BBX 5 5 0 7
BITMAP
20
a8
70
70
88
ENDCHAR
STARTCHAR plus
ENCODING 43
SWIDTH 584 0
DWIDTH 10 0
BBX 8 8 1 0
BITMAP
18
18
18
ff
ff
18
18
18
ENDCHAR
STARTCHAR comma
ENCODING 44
SWIDTH 278 0
DWIDTH 4 0
BBX 2 5 1 -3
BITMAP
c0
c0
40
40
80
ENDCHAR
STARTCHAR minus
ENCODING 45
SWIDTH 584 0
DWIDTH 10 0
BBX 8 2 1 3
BITMAP
ff
ff
ENDCHAR
STARTCHAR period
ENCODING 46
SWIDTH 278 0
DWIDTH 4 0
BBX 2 2 1 0
BITMAP
c0
c0
ENDCHAR
STARTCHAR slash
ENCODING 47
SWIDTH 278 0
DWIDTH 5 0
BBX 4 12 0 0
BITMAP
10
10
30
20
20
60
40
40
c0
80
80
80
ENDCHAR
STARTCHAR zero
ENCODING 48
SWIDTH 556 0
DWIDTH 9 0
BBX 8 12 0 0
BITMAP
3c
7e
e7
c3
c3
c3
c3
c3
c3
e7
7e
3c
ENDCHAR
STARTCHAR one
ENCODING 49
SWIDTH 556 0
DWIDTH 9 0
BBX 5 12 1 0
BITMAP
08
18
f8
f8
18
18
18
18
18
18
18
18
ENDCHAR
STARTCHAR two
ENCODING 50
SWIDTH 556 0
DWIDTH 9 0
BBX 8 12 0 0
BITMAP
3c
7e
e7
c3
c3
07
0e
1c
38
70
ff
ff
ENDCHAR
STARTCHAR three
ENCODING 51
SWIDTH 556 0
DWIDTH 9 0
BBX 8 12 0 0
BITMAP
3c
7e
e7
c3
07
1e
1e
07
c3
e7
7e
3c
ENDCHAR
STARTCHAR four
ENCODING 52
SWIDTH 556 0
DWIDTH 9 0
BBX 8 12 0 0
BITMAP
0e
1e
36
36
66
66
c6
ff
ff
06
06
06
ENDCHAR
STARTCHAR five
ENCODING 53
SWIDTH 556 0
DWIDTH 9 0
BBX 8 12 0 0
BITMAP
3f
3f
30
30
7c
7e
47
03
03
e7
7e
3c
ENDCHAR
STARTCHAR six
ENCODING 54
SWIDTH 556 0
DWIDTH 9 0
BBX 8 12 0 0
BITMAP
3c
7e
e7
c0
dc
fe
e7
c3
c3
e7
7e
3c
ENDCHAR
STARTCHAR seven
ENCODING 55
SWIDTH 556 0
DWIDTH 9 0
BBX 8 12 0 0
BITMAP
ff
ff
06
06
0c
0c
18
18
18
30
30
30
ENDCHAR
STARTCHAR eight
ENCODING 56
SWIDTH 556 0
DWIDTH 9 0
BBX 8 12 0 0
BITMAP
3c
7e
e7
c3
66
3c
7e
e7
c3
e7
7e
3c
ENDCHAR
STARTCHAR nine
ENCODING 57
SWIDTH 556 0
DWIDTH 9 0
BBX 8 12 0 0
BITMAP
3c
7e
e7
c3
c3
e7
7f
3b
03
e7
7e
3c
ENDCHAR
STARTCHAR colon
ENCODING 58
SWIDTH 333 0
DWIDTH 5 0
BBX 2 8 2 0
BITMAP
c0
c0
00
00
00
00
c0
c0
ENDCHAR
STARTCHAR semicolon
ENCODING 59
SWIDTH 333 0
DWIDTH 5 0
BBX 2 11 2 -3
BITMAP
c0
c0
00
00
00
00
c0
c0
40
40
80
ENDCHAR
STARTCHAR less
ENCODING 60
SWIDTH 584 0
DWIDTH 10 0
BBX 8 8 1 0
BITMAP
03
0f
3c
e0
e0
3c
0f
03
ENDCHAR
STARTCHAR equal
ENCODING 61
SWIDTH 584 0
DWIDTH 10 0
BBX 8 6 1 1
BITMAP
ff
ff
00
00
ff
ff
ENDCHAR
STARTCHAR greater
ENCODING 62
SWIDTH 584 0
DWIDTH 10 0
BBX 8 8 1 0
BITMAP
c0
f0
3c
07
07
3c
f0
c0
ENDCHAR
STARTCHAR question
ENCODING 63
SWIDTH 611 0
DWIDTH 10 0
BBX 7 12 1 0
BITMAP
7c
fe
c6
c6
06
0e
0c
18
18
00
18
18
ENDCHAR
STARTCHAR at
ENCODING 64
SWIDTH 975 0
DWIDTH 16 0
BBX 13 14 1 -2
BITMAP
0fc0
3860
6010
47d8
cc48
88c8
98c8
9888
9998
c990
4660
6000
38c0
0f80
ENDCHAR
STARTCHAR A
ENCODING 65
SWIDTH 722 0
DWIDTH 12 0
BBX 11 12 0 0
BITMAP
0e00
0e00
1f00
1b00
3b80
3180
71c0
60c0
7fc0
ffe0
c060
c060
ENDCHAR
STARTCHAR B
ENCODING 66
SWIDTH 722 0
DWIDTH 11 0
BBX 9 12 1 0
BITMAP
fe00
ff00
c380
c180
c380
ff00
ff00
c380
c180
c380
ff00
fe00
ENDCHAR
STARTCHAR C
ENCODING 67
SWIDTH 722 0
DWIDTH 12 0
BBX 10 12 1 0
BITMAP
1f00
3f80
71c0
60c0
e000
c000
c000
e000
60c0
71c0
3f80
1f00
ENDCHAR
STARTCHAR D
ENCODING 68
SWIDTH 722 0
DWIDTH 12 0
BBX 10 12 1 0
BITMAP
fc00
ff00
c380
c180
c1c0
c0c0
c0c0
c1c0
c180
c380
ff00
fc00
ENDCHAR
STARTCHAR E
ENCODING 69
SWIDTH 667 0
DWIDTH 10 0
BBX 8 12 1 0
BITMAP
ff
ff
c0
c0
c0
fe
fe
c0
c0
c0
ff
ff
ENDCHAR
STARTCHAR F
ENCODING 70
SWIDTH 611 0
DWIDTH 10 0
BBX 8 12 1 0
BITMAP
ff
ff
c0
c0
c0
fe
fe
c0
c0
c0
c0
c0
ENDCHAR
STARTCHAR G
ENCODING 71
SWIDTH 778 0
DWIDTH 12 0
BBX 10 12 1 0
BITMAP
1f00
3f80
71c0
60c0
e000
c000
c3c0
e3c0
60c0
71c0
3fc0
1ec0
ENDCHAR
STARTCHAR H
ENCODING 72
SWIDTH 722 0
DWIDTH 12 0
BBX 10 12 1 0
BITMAP
c0c0
c0c0
c0c0
c0c0
ffc0
ffc0
c0c0
c0c0
c0c0
c0c0
c0c0
c0c0
ENDCHAR
STARTCHAR I
ENCODING 73
SWIDTH 278 0
DWIDTH 4 0
BBX 2 12 1 0
BITMAP
c0
c0
c0
c0
c0
c0
c0
c0
c0
c0
c0
c0
ENDCHAR
STARTCHAR J
ENCODING 74
SWIDTH 556 0
DWIDTH 9 0
BBX 7 12 1 0
BITMAP
06
06
06
06
06
06
06
06
c6
c6
fe
7c
ENDCHAR
STARTCHAR K
ENCODING 75
SWIDTH 722 0
DWIDTH 12 0
BBX 11 12 1 0
BITMAP
c1c0
c380
c700
ce00
dc00
f800
fc00
ce00
c700
c380
c1c0
c0e0
ENDCHAR
STARTCHAR L
ENCODING 76
SWIDTH 611 0
DWIDTH 10 0
BBX 8 12 1 0
BITMAP
c0
c0
c0
c0
c0
c0
c0
c0
c0
c0
ff
ff
ENDCHAR
STARTCHAR M
ENCODING 77
SWIDTH 833 0
DWIDTH 13 0
BBX 11 12 1 0
BITMAP
e0e0
e0e0
e0e0
f1e0
f1e0
d160
db60
db60
ca60
ce60
ce60
c460
ENDCHAR
STARTCHAR N
ENCODING 78
SWIDTH 722 0
DWIDTH 12 0
BBX 10 12 1 0
BITMAP
e0c0
f0c0
f0c0
d8c0
d8c0
ccc0
ccc0
c6c0
c6c0
c3c0
c3c0
c1c0
ENDCHAR
STARTCHAR O
ENCODING 79
SWIDTH 778 0
DWIDTH 13 0
BBX 11 12 1 0
BITMAP
1f00
3f80
71c0
60c0
e0e0
c060
c060
e0e0
60c0
71c0
3f80
1f00
ENDCHAR
STARTCHAR P
ENCODING 80
SWIDTH 667 0
DWIDTH 11 0
BBX 9 12 1 0
BITMAP
fe00
ff00
c380
c180
c180
c380
ff00
fe00
c000
c000
c000
c000
ENDCHAR
STARTCHAR Q
ENCODING 81
SWIDTH 778 0
DWIDTH 13 0
BBX 11 13 1 -1
BITMAP
1f00
3f80
71c0
60c0
e0e0
c060
c060
e260
67c0
73c0
3f80
1fc0
0080
ENDCHAR
STARTCHAR R
ENCODING 82
SWIDTH 722 0
DWIDTH 12 0
BBX 10 12 1 0
BITMAP
ff00
ff80
c180
c180
c380
ff00
ff00
c380
c180
c180
c1c0
c1c0
ENDCHAR
STARTCHAR S
ENCODING 83
SWIDTH 667 0
DWIDTH 11 0
BBX 9 12 1 0
BITMAP
3e00
7f00
e380
c180
f000
7e00
1f00
0380
c180
e380
7f00
3e00
ENDCHAR
STARTCHAR T
ENCODING 84
SWIDTH 611 0
DWIDTH 10 0
BBX 10 12 0 0
BITMAP
ffc0
ffc0
0c00
0c00
0c00
0c00
0c00
0c00
0c00
0c00
0c00
0c00
ENDCHAR
STARTCHAR U
ENCODING 85
SWIDTH 722 0
DWIDTH 12 0
BBX 10 12 1 0
BITMAP
c0c0
c0c0
c0c0
c0c0
c0c0
c0c0
c0c0
c0c0
c0c0
e1c0
7f80
3f00
ENDCHAR
STARTCHAR V
ENCODING 86
SWIDTH 667 0
DWIDTH 11 0
BBX 10 12 0 0
BITMAP
c0c0
c0c0
6180
6180
6180
3300
3300
3300
1e00
1e00
0c00
0c00
ENDCHAR
STARTCHAR W
ENCODING 87
SWIDTH 944 0
DWIDTH 15 0
BBX 14 12 0 0
BITMAP
c30c
c30c
c30c
6318
6798
6798
34b0
3cf0
3cf0
1860
1860
1860
ENDCHAR
STARTCHAR X
ENCODING 88
SWIDTH 667 0
DWIDTH 11 0
BBX 9 12 1 0
BITMAP
c180
e380
6300
3600
3e00
1c00
1c00
3e00
3600
6300
e380
c180
ENDCHAR
STARTCHAR Y
ENCODING 89
SWIDTH 667 0
DWIDTH 11 0
BBX 10 12 0 0
BITMAP
c0c0
e1c0
6180
3300
3300
1e00
1e00
0c00
0c00
0c00
0c00
0c00
ENDCHAR
STARTCHAR Z
ENCODING 90
SWIDTH 611 0
DWIDTH 10 0
BBX 8 12 1 0
BITMAP
ff
ff
07
06
0c
1c
38
30
60
e0
ff
ff
ENDCHAR
STARTCHAR bracketleft
ENCODING 91
SWIDTH 333 0
DWIDTH 6 0
BBX 4 15 1 -3
BITMAP
f0
f0
c0
c0
c0
c0
c0
c0
c0
c0
c0
c0
c0
f0
f0
ENDCHAR
STARTCHAR backslash
ENCODING 92
SWIDTH 278 0
DWIDTH 5 0
BBX 4 12 0 0
BITMAP
80
80
c0
40
40
60
20
20
30
10
10
10
ENDCHAR
STARTCHAR bracketright
ENCODING 93
SWIDTH 333 0
DWIDTH 6 0
BBX 4 15 0 -3
BITMAP
f0
f0
30
30
30
30
30
30
30
30
30
30
30
f0
f0
ENDCHAR
STARTCHAR asciicircum
ENCODING 94
SWIDTH 584 0
DWIDTH 10 0
BBX 8 7 1 5
BITMAP
18
18
3c
66
66
c3
c3
ENDCHAR
STARTCHAR underscore
ENCODING 95
SWIDTH 556 0
DWIDTH 9 0
BBX 9 1 0 -3
BITMAP
ff80
ENDCHAR
STARTCHAR grave
ENCODING 96
SWIDTH 333 0
DWIDTH 6 0
BBX 3 3 2 10
BITMAP
80
c0
20
ENDCHAR
STARTCHAR a
ENCODING 97
SWIDTH 556 0
DWIDTH 9 0
BBX 8 9 1 0
BITMAP
7c
fe
c6
0e
7e
e6
c6
fe
77
ENDCHAR
STARTCHAR b
ENCODING 98
SWIDTH 611 0
DWIDTH 10 0
BBX 8 12 1 0
BITMAP
c0
c0
c0
dc
fe
e7
c3
c3
c3
e7
fe
dc
ENDCHAR
STARTCHAR c
ENCODING 99
SWIDTH 556 0
DWIDTH 9 0
BBX 8 9 1 0
BITMAP
3c
7e
e7
c0
c0
c0
e7
7e
3c
ENDCHAR
STARTCHAR d
ENCODING 100
SWIDTH 611 0
DWIDTH 10 0
BBX 8 12 1 0
BITMAP
03
03
03
3f
7f
e7
c3
c3
c3
e7
7f
3b
ENDCHAR
STARTCHAR e
ENCODING 101
SWIDTH 556 0
DWIDTH 10 0
BBX 8 9 1 0
BITMAP
3c
7e
c3
ff
ff
c0
e7
7e
3c
ENDCHAR
STARTCHAR f
ENCODING 102
SWIDTH 333 0
DWIDTH 6 0
BBX 4 12 1 0
BITMAP
30
70
60
f0
f0
60
60
60
60
60
60
60
ENDCHAR
STARTCHAR g
ENCODING 103
SWIDTH 611 0
DWIDTH 10 0
BBX 8 13 1 -4
BITMAP
3b
7f
e7
c3
c3
c3
e7
7f
3b
03
e7
7e
3c
ENDCHAR
STARTCHAR h
ENCODING 104
SWIDTH 611 0
DWIDTH 10 0
BBX 8 12 1 0
BITMAP
c0
c0
c0
de
ff
e3
c3
c3
c3
c3
c3
c3
ENDCHAR
STARTCHAR i
ENCODING 105
SWIDTH 278 0
DWIDTH 4 0
BBX 2 12 1 0
BITMAP
c0
c0
00
c0
c0
c0
c0
c0
c0
c0
c0
c0
ENDCHAR
STARTCHAR j
ENCODING 106
SWIDTH 278 0
DWIDTH 5 0
BBX 3 16 1 -4
BITMAP
60
60
00
60
60
60
60
60
60
60
60
60
60
60
e0
c0
ENDCHAR
STARTCHAR k
ENCODING 107
SWIDTH 556 0
DWIDTH 9 0
BBX 8 12 1 0
BITMAP
c0
c0
c0
c7
ce
dc
f8
fc
ec
ce
c6
c7
ENDCHAR
STARTCHAR l
ENCODING 108
SWIDTH 278 0
DWIDTH 4 0
BBX 2 12 1 0
BITMAP
c0
c0
c0
c0
c0
c0
c0
c0
c0
c0
c0
c0
ENDCHAR
STARTCHAR m
ENCODING 109
SWIDTH 889 0
DWIDTH 14 0
BBX 12 9 1 0
BITMAP
dee0
fff0
e730
c630
c630
c630
c630
c630
c630
ENDCHAR
STARTCHAR n
ENCODING 110
SWIDTH 611 0
DWIDTH 10 0
BBX 8 9 1 0
BITMAP
de
ff
e3
c3
c3
c3
c3
c3
c3
ENDCHAR
STARTCHAR o
ENCODING 111
SWIDTH 611 0
DWIDTH 10 0
BBX 8 9 1 0
BITMAP
3c
7e
e7
c3
c3
c3
e7
7e
3c
ENDCHAR
STARTCHAR p
ENCODING 112
SWIDTH 611 0
DWIDTH 10 0
BBX 8 13 1 -4
BITMAP
dc
fe
e7
c3
c3
c3
e7
fe
dc
c0
c0
c0
c0
ENDCHAR
STARTCHAR q
ENCODING 113
SWIDTH 611 0
DWIDTH 10 0
BBX 8 13 1 -4
BITMAP
3b
7f
e7
c3
c3
c3
e7
7f
3b
03
03
03
03
ENDCHAR
STARTCHAR r
ENCODING 114
SWIDTH 389 0
DWIDTH 6 0
BBX 5 9 1 0
BITMAP
d8
f8
e0
c0
c0
c0
c0
c0
c0
ENDCHAR
STARTCHAR s
ENCODING 115
SWIDTH 556 0
DWIDTH 9 0
BBX 7 9 1 0
BITMAP
7c
fe
c6
f0
7c
0e
c6
fe
7c
ENDCHAR
STARTCHAR t
ENCODING 116
SWIDTH 333 0
DWIDTH 6 0
BBX 4 11 1 0
BITMAP
60
60
f0
f0
60
60
60
60
60
70
30
ENDCHAR
STARTCHAR u
ENCODING 117
SWIDTH 611 0
DWIDTH 10 0
BBX 8 9 1 0
BITMAP
c3
c3
c3
c3
c3
c3
c7
ff
7b
ENDCHAR
STARTCHAR v
ENCODING 118
SWIDTH 556 0
DWIDTH 9 0
BBX 8 9 0 0
BITMAP
c3
c3
66
66
66
3c
3c
18
18
ENDCHAR
STARTCHAR w
ENCODING 119
SWIDTH 778 0
DWIDTH 13 0
BBX 12 9 0 0
BITMAP
c630
c630
6660
6660
6f60
3fc0
39c0
1980
1980
ENDCHAR
STARTCHAR x
ENCODING 120
SWIDTH 556 0
DWIDTH 9 0
BBX 7 9 1 0
BITMAP
c6
c6
6c
7c
38
7c
6c
c6
c6
ENDCHAR
STARTCHAR y
ENCODING 121
SWIDTH 556 0
DWIDTH 9 0
BBX 8 13 0 -4
BITMAP
c3
c3
63
66
36
36
3c
1c
18
18
18
70
60
ENDCHAR
STARTCHAR z
ENCODING 122
SWIDTH 500 0
DWIDTH 8 0
BBX 7 9 0 0
BITMAP
fe
fe
0e
1c
18
38
70
fe
fe
ENDCHAR
STARTCHAR braceleft
ENCODING 123
SWIDTH 389 0
DWIDTH 6 0
BBX 4 15 1 -3
BITMAP
30
70
60
60
60
60
60
c0
60
60
60
60
60
70
30
ENDCHAR
STARTCHAR bar
ENCODING 124
SWIDTH 280 0
DWIDTH 4 0
BBX 1 16 1 -4
BITMAP
80
80
80
80
80
80
80
80
80
80
80
80
80
80
80
80
ENDCHAR
STARTCHAR braceright
ENCODING 125
SWIDTH 389 0
DWIDTH 6 0
BBX 4 15 1 -3
BITMAP
c0
e0
60
60
60
60
60
30
60
60
60
60
60
e0
c0
ENDCHAR
STARTCHAR asciitilde
ENCODING 126
SWIDTH 584 0
DWIDTH 10 0
BBX 8 3 1 3
BITMAP
71
99
8e
ENDCHAR
STARTCHAR nobreakspace
ENCODING 160
SWIDTH 278 0
DWIDTH 5 0
BBX 1 1 0 0
BITMAP
00
ENDCHAR
STARTCHAR Aogonek
ENCODING 161
SWIDTH 722 0
DWIDTH 12 0
BBX 11 16 0 -4
BITMAP
0e00
0e00
1f00
1b00
3b80
3180
71c0
60c0
7fc0
ffe0
c060
c060
0400
0800
0900
0e00
ENDCHAR
STARTCHAR breve
ENCODING 162
SWIDTH 333 0
DWIDTH 6 0
BBX 5 2 0 10
BITMAP
88
70
ENDCHAR
STARTCHAR Lstroke
ENCODING 163
SWIDTH 611 0
DWIDTH 10 0
BBX 10 12 -1 0
BITMAP
3000
3000
3000
3400
3800
3000
7000
b000
3000
3000
3fc0
3fc0
ENDCHAR
STARTCHAR currency
ENCODING 164
SWIDTH 556 0
DWIDTH 9 0
BBX 7 7 1 2
BITMAP
ba
7c
c6
c6
c6
7c
ba
ENDCHAR
STARTCHAR Lcaron
ENCODING 165
SWIDTH 611 0
DWIDTH 10 0
BBX 8 13 1 0
BITMAP
18
d8
c8
d0
c0
c0
c0
c0
c0
c0
c0
ff
ff
ENDCHAR
STARTCHAR Sacute
ENCODING 166
SWIDTH 667 0
DWIDTH 11 0
BBX 9 16 1 0
BITMAP
0200
0600
0800
0000
3e00
7f00
e380
c180
f000
7e00
1f00
0380
c180
e380
7f00
3e00
ENDCHAR
STARTCHAR section
ENCODING 167
SWIDTH 556 0
DWIDTH 9 0
BBX 8 15 0 -3
BITMAP
3c
7e
66
60
78
7e
c7
c3
f3
7e
1e
06
66
7e
3c
ENDCHAR
STARTCHAR diaeresis
ENCODING 168
SWIDTH 333 0
DWIDTH 6 0
BBX 5 2 0 10
BITMAP
d8
d8
ENDCHAR
STARTCHAR Scaron
ENCODING 169
SWIDTH 667 0
DWIDTH 11 0
BBX 9 16 1 0
BITMAP
2200
1c00
0800
0000
3e00
7f00
e380
c180
f000
7e00
1f00
0380
c180
e380
7f00
3e00
ENDCHAR
STARTCHAR Scedilla
ENCODING 170
SWIDTH 667 0
DWIDTH 11 0
BBX 9 16 1 -4
BITMAP
3e00
7f00
e380
c180
f000
7e00
1f00
0380
c180
e380
7f00
3e00
0800
0c00
2600
1c00
ENDCHAR
STARTCHAR Tcaron
ENCODING 171
SWIDTH 611 0
DWIDTH 10 0
BBX 10 16 0 0
BITMAP
2200
1c00
0800
0000
ffc0
ffc0
0c00
0c00
0c00
0c00
0c00
0c00
0c00
0c00
0c00
0c00
ENDCHAR
STARTCHAR Zacute
ENCODING 172
SWIDTH 611 0
DWIDTH 10 0
BBX 8 16 1 0
BITMAP
04
0c
10
00
ff
ff
07
06
0c
1c
38
30
60
e0
ff
ff
ENDCHAR
STARTCHAR hyphen
ENCODING 173
SWIDTH 333 0
DWIDTH 5 0
BBX 4 2 0 3
BITMAP
f0
f0
ENDCHAR
STARTCHAR Zcaron
ENCODING 174
SWIDTH 611 0
DWIDTH 10 0
BBX 8 16 1 0
BITMAP
44
38
10
00
ff
ff
07
06
0c
1c
38
30
60
e0
ff
ff
ENDCHAR
STARTCHAR Zabovedot
ENCODING 175
SWIDTH 611 0
DWIDTH 10 0
BBX 8 15 1 0
BITMAP
18
18
00
ff
ff
07
06
0c
1c
38
30
60
e0
ff
ff
ENDCHAR
STARTCHAR degree
ENCODING 176
SWIDTH 400 0
DWIDTH 7 0
BBX 4 5 1 7
BITMAP
60
90
90
90
60
ENDCHAR
STARTCHAR aogonek
ENCODING 177
SWIDTH 556 0
DWIDTH 9 0
BBX 8 13 1 -4
BITMAP
7c
fe
c6
0e
7e
e6
c6
fe
77
10
20
24
38
ENDCHAR
STARTCHAR ogonek
ENCODING 178
SWIDTH 333 0
DWIDTH 6 0
BBX 4 4 1 -3
BITMAP
40
80
90
e0
ENDCHAR
STARTCHAR lstroke
ENCODING 179
SWIDTH 278 0
DWIDTH 5 0
BBX 4 12 0 0
BITMAP
60
60
60
70
60
60
e0
60
60
60
60
60
ENDCHAR
STARTCHAR acute
ENCODING 180
SWIDTH 333 0
DWIDTH 6 0
BBX 3 3 1 10
BITMAP
20
60
80
ENDCHAR
STARTCHAR lcaron
ENCODING 181
SWIDTH 420 0
DWIDTH 7 0
BBX 5 13 1 0
BITMAP
18
d8
c8
d0
c0
c0
c0
c0
c0
c0
c0
c0
c0
ENDCHAR
STARTCHAR sacute
ENCODING 182
SWIDTH 556 0
DWIDTH 9 0
BBX 7 13 1 0
BITMAP
04
0c
10
00
7c
fe
c6
f0
7c
0e
c6
fe
7c
ENDCHAR
STARTCHAR caron
ENCODING 183
SWIDTH 333 0
DWIDTH 6 0
BBX 5 3 0 10
BITMAP
88
70
20
ENDCHAR
STARTCHAR cedilla
ENCODING 184
SWIDTH 333 0
DWIDTH 6 0
BBX 5 4 0 -4
BITMAP
20
30
98
70
ENDCHAR
STARTCHAR scaron
ENCODING 185
SWIDTH 556 0
DWIDTH 9 0
BBX 7 13 1 0
BITMAP
44
38
10
00
7c
fe
c6
f0
7c
0e
c6
fe
7c
ENDCHAR
STARTCHAR scedilla
ENCODING 186
SWIDTH 556 0
DWIDTH 9 0
BBX 7 13 1 -4
BITMAP
7c
fe
c6
f0
7c
0e
c6
fe
7c
10
18
4c
38
ENDCHAR
STARTCHAR tcaron
ENCODING 187
SWIDTH 480 0
DWIDTH 8 0
BBX 6 14 1 0
BITMAP
0c
0c
04
68
60
f0
f0
60
60
60
60
60
70
30
ENDCHAR
STARTCHAR zacute
ENCODING 188
SWIDTH 500 0
DWIDTH 8 0
BBX 7 13 0 0
BITMAP
04
0c
10
00
fe
fe
0e
1c
18
38
70
fe
fe
ENDCHAR
STARTCHAR doubleacute
ENCODING 189
SWIDTH 333 0
DWIDTH 6 0
BBX 6 3 0 10
BITMAP
6c
48
90
ENDCHAR
STARTCHAR zcaron
ENCODING 190
SWIDTH 500 0
DWIDTH 8 0
BBX 7 13 0 0
BITMAP
44
38
10
00
fe
fe
0e
1c
18
38
70
fe
fe
ENDCHAR
STARTCHAR zabovedot
ENCODING 191
SWIDTH 500 0
DWIDTH 8 0
BBX 7 12 0 0
BITMAP
18
18
00
fe
fe
0e
1c
18
38
70
fe
fe
ENDCHAR
STARTCHAR Racute
ENCODING 192
SWIDTH 722 0
DWIDTH 12 0
BBX 10 16 1 0
BITMAP
0200
0600
0800
0000
ff00
ff80
c180
c180
c380
ff00
ff00
c380
c180
c180
c1c0
c1c0
ENDCHAR
STARTCHAR Aacute
ENCODING 193
SWIDTH 722 0
DWIDTH 12 0
BBX 11 16 0 0
BITMAP
0200
0600
0800
0000
0e00
0e00
1f00
1b00
3b80
3180
71c0
60c0
7fc0
ffe0
c060
c060
ENDCHAR
STARTCHAR Acircumflex
ENCODING 194
SWIDTH 722 0
DWIDTH 12 0
BBX 11 16 0 0
BITMAP
0400
0e00
1100
0000
0e00
0e00
1f00
1b00
3b80
3180
71c0
60c0
7fc0
ffe0
c060
c060
ENDCHAR
STARTCHAR Abreve
ENCODING 195
SWIDTH 722 0
DWIDTH 12 0
BBX 11 15 0 0
BITMAP
1100
0e00
0000
0e00
0e00
1f00
1b00
3b80
3180
71c0
60c0
7fc0
ffe0
c060
c060
ENDCHAR
STARTCHAR Adiaeresis
ENCODING 196
SWIDTH 722 0
DWIDTH 12 0
BBX 11 15 0 0
BITMAP
3180
3180
0000
0e00
0e00
1f00
1b00
3b80
3180
71c0
60c0
7fc0
ffe0
c060
c060
ENDCHAR
STARTCHAR Lacute
ENCODING 197
SWIDTH 611 0
DWIDTH 10 0
BBX 8 16 1 0
BITMAP
20
60
80
00
c0
c0
c0
c0
c0
c0
c0
c0
c0
c0
ff
ff
ENDCHAR
STARTCHAR Cacute
ENCODING 198
SWIDTH 722 0
DWIDTH 12 0
BBX 10 16 1 0
BITMAP
0100
0300
0400
0000
1f00
3f80
71c0
60c0
e000
c000
c000
e000
60c0
71c0
3f80
1f00
ENDCHAR
STARTCHAR Ccedilla
ENCODING 199
SWIDTH 722 0
DWIDTH 12 0
BBX 10 16 1 -4
BITMAP
1f00
3f80
71c0
60c0
e000
c000
c000
e000
60c0
71c0
3f80
1f00
0400
0600
1300
0e00
ENDCHAR
STARTCHAR Ccaron
ENCODING 200
SWIDTH 722 0
DWIDTH 12 0
BBX 10 16 1 0
BITMAP
1100
0e00
0400
0000
1f00
3f80
71c0
60c0
e000
c000
c000
e000
60c0
71c0
3f80
1f00
ENDCHAR
STARTCHAR Eacute
ENCODING 201
SWIDTH 667 0
DWIDTH 10 0
BBX 8 16 1 0
BITMAP
04
0c
10
00
ff
ff
c0
c0
c0
fe
fe
c0
c0
c0
ff
ff
ENDCHAR
STARTCHAR Eogonek
ENCODING 202
SWIDTH 667 0
DWIDTH 10 0
BBX 8 16 1 -4
BITMAP
ff
ff
c0
c0
c0
fe
fe
c0
c0
c0
ff
ff
10
20
24
38
ENDCHAR
STARTCHAR Ediaeresis
ENCODING 203
SWIDTH 667 0
DWIDTH 10 0
BBX 8 15 1 0
BITMAP
66
66
00
ff
ff
c0
c0
c0
fe
fe
c0
c0
c0
ff
ff
ENDCHAR
STARTCHAR Ecaron
ENCODING 204
SWIDTH 667 0
DWIDTH 10 0
BBX 8 16 1 0
BITMAP
44
38
10
00
ff
ff
c0
c0
c0
fe
fe
c0
c0
c0
ff
ff
ENDCHAR
STARTCHAR Iacute
ENCODING 205
SWIDTH 278 0
DWIDTH 4 0
BBX 3 16 1 0
BITMAP
20
60
80
00
c0
c0
c0
c0
c0
c0
c0
c0
c0
c0
c0
c0
ENDCHAR
STARTCHAR Icircumflex
ENCODING 206
SWIDTH 278 0
DWIDTH 4 0
BBX 5 16 0 0
BITMAP
20
70
88
00
60
60
60
60
60
60
60
60
60
60
60
60
ENDCHAR
STARTCHAR Dcaron
ENCODING 207
SWIDTH 722 0
DWIDTH 12 0
BBX 10 16 1 0
BITMAP
4400
3800
1000
0000
fc00
ff00
c380
c180
c1c0
c0c0
c0c0
c1c0
c180
c380
ff00
fc00
ENDCHAR
STARTCHAR Dstroke
ENCODING 208
SWIDTH 722 0
DWIDTH 12 0
BBX 12 12 0 0
BITMAP
3f00
3fc0
30e0
3060
3070
fc30
fc30
3070
3060
30e0
3fc0
3f00
ENDCHAR
STARTCHAR Nacute
ENCODING 209
SWIDTH 722 0
DWIDTH 12 0
BBX 10 16 1 0
BITMAP
0200
0600
0800
0000
e0c0
f0c0
f0c0
d8c0
d8c0
ccc0
ccc0
c6c0
c6c0
c3c0
c3c0
c1c0
ENDCHAR
STARTCHAR Ncaron
ENCODING 210
SWIDTH 722 0
DWIDTH 12 0
BBX 10 16 1 0
BITMAP
2200
1c00
0800
0000
e0c0
f0c0
f0c0
d8c0
d8c0
ccc0
ccc0
c6c0
c6c0
c3c0
c3c0
c1c0
ENDCHAR
STARTCHAR Oacute
ENCODING 211
SWIDTH 778 0
DWIDTH 13 0
BBX 11 16 1 0
BITMAP
0100
0300
0400
0000
1f00
3f80
71c0
60c0
e0e0
c060
c060
e0e0
60c0
71c0
3f80
1f00
ENDCHAR
STARTCHAR Ocircumflex
ENCODING 212
SWIDTH 778 0
DWIDTH 13 0
BBX 11 16 1 0
BITMAP
0400
0e00
1100
0000
1f00
3f80
71c0
60c0
e0e0
c060
c060
e0e0
60c0
71c0
3f80
1f00
ENDCHAR
STARTCHAR Odoubleacute
ENCODING 213
SWIDTH 778 0
DWIDTH 13 0
BBX 11 16 1 0
BITMAP
06c0
0480
0900
0000
1f00
3f80
71c0
60c0
e0e0
c060
c060
e0e0
60c0
71c0
3f80
1f00
ENDCHAR
STARTCHAR Odiaeresis
ENCODING 214
SWIDTH 778 0
DWIDTH 13 0
BBX 11 15 1 0
BITMAP
1980
1980
0000
1f00
3f80
71c0
60c0
e0e0
c060
c060
e0e0
60c0
71c0
3f80
1f00
ENDCHAR
STARTCHAR multiply
ENCODING 215
SWIDTH 584 0
DWIDTH 10 0
BBX 9 9 0 0
BITMAP
4100
e380
7700
3e00
1c00
3e00
7700
e380
4100
ENDCHAR
STARTCHAR Rcaron
ENCODING 216
SWIDTH 722 0
DWIDTH 12 0
BBX 10 16 1 0
BITMAP
2200
1c00
0800
0000
ff00
ff80
c180
c180
c380
ff00
ff00
c380
c180
c180
c1c0
c1c0
ENDCHAR
STARTCHAR Uring
ENCODING 217
SWIDTH 722 0
DWIDTH 12 0
BBX 10 17 1 0
BITMAP
0800
1400
1400
0800
0000
c0c0
c0c0
c0c0
c0c0
c0c0
c0c0
c0c0
c0c0
c0c0
e1c0
7f80
3f00
ENDCHAR
STARTCHAR Uacute
ENCODING 218
SWIDTH 722 0
DWIDTH 12 0
BBX 10 16 1 0
BITMAP
0200
0600
0800
0000
c0c0
c0c0
c0c0
c0c0
c0c0
c0c0
c0c0
c0c0
c0c0
e1c0
7f80
3f00
ENDCHAR
STARTCHAR Udoubleacute
ENCODING 219
SWIDTH 722 0
DWIDTH 12 0
BBX 10 16 1 0
BITMAP
0d80
0900
1200
0000
c0c0
c0c0
c0c0
c0c0
c0c0
c0c0
c0c0
c0c0
c0c0
e1c0
7f80
3f00
ENDCHAR
STARTCHAR Udiaeresis
ENCODING 220
SWIDTH 722 0
DWIDTH 12 0
BBX 10 15 1 0
BITMAP
3300
3300
0000
c0c0
c0c0
c0c0
c0c0
c0c0
c0c0
c0c0
c0c0
c0c0
e1c0
7f80
3f00
ENDCHAR
STARTCHAR Yacute
ENCODING 221
SWIDTH 667 0
DWIDTH 11 0
BBX 10 16 0 0
BITMAP
0200
0600
0800
0000
c0c0
e1c0
6180
3300
3300
1e00
1e00
0c00
0c00
0c00
0c00
0c00
ENDCHAR
STARTCHAR Tcedilla
ENCODING 222
SWIDTH 611 0
DWIDTH 10 0
BBX 10 16 0 -4
BITMAP
ffc0
ffc0
0c00
0c00
0c00
0c00
0c00
0c00
0c00
0c00
0c00
0c00
0800
0c00
2600
1c00
ENDCHAR
STARTCHAR ssharp
ENCODING 223
SWIDTH 611 0
DWIDTH 10 0
BBX 8 12 1 0
BITMAP
7c
fe
c6
c6
dc
de
c3
c3
c3
c3
de
dc
ENDCHAR
STARTCHAR racute
ENCODING 224
SWIDTH 389 0
DWIDTH 6 0
BBX 5 13 1 0
BITMAP
08
18
20
00
d8
f8
e0
c0
c0
c0
c0
c0
c0
ENDCHAR
STARTCHAR aacute
ENCODING 225
SWIDTH 556 0
DWIDTH 9 0
BBX 8 13 1 0
BITMAP
04
0c
10
00
7c
fe
c6
0e
7e
e6
c6
fe
77
ENDCHAR
STARTCHAR acircumflex
ENCODING 226
SWIDTH 556 0
DWIDTH 9 0
BBX 8 13 1 0
BITMAP
10
38
44
00
7c
fe
c6
0e
7e
e6
c6
fe
77
ENDCHAR
STARTCHAR abreve
ENCODING 227
SWIDTH 556 0
DWIDTH 9 0
BBX 8 12 1 0
BITMAP
44
38
00
7c
fe
c6
0e
7e
e6
c6
fe
77
ENDCHAR
STARTCHAR adiaeresis
ENCODING 228
SWIDTH 556 0
DWIDTH 9 0
BBX 8 12 1 0
BITMAP
6c
6c
00
7c
fe
c6
0e
7e
e6
c6
fe
77
ENDCHAR
STARTCHAR lacute
ENCODING 229
SWIDTH 278 0
DWIDTH 4 0
BBX 3 16 1 0
BITMAP
20
60
80
00
c0
c0
c0
c0
c0
c0
c0
c0
c0
c0
c0
c0
ENDCHAR
STARTCHAR cacute
ENCODING 230
SWIDTH 556 0
DWIDTH 9 0
BBX 8 13 1 0
BITMAP
04
0c
10
00
3c
7e
e7
c0
c0
c0
e7
7e
3c
ENDCHAR
STARTCHAR ccedilla
ENCODING 231
SWIDTH 556 0
DWIDTH 9 0
BBX 8 13 1 -4
BITMAP
3c
7e
e7
c0
c0
c0
e7
7e
3c
10
18
4c
38
ENDCHAR
STARTCHAR ccaron
ENCODING 232
SWIDTH 556 0
DWIDTH 9 0
BBX 8 13 1 0
BITMAP
44
38
10
00
3c
7e
e7
c0
c0
c0
e7
7e
3c
ENDCHAR
STARTCHAR eacute
ENCODING 233
SWIDTH 556 0
DWIDTH 10 0
BBX 8 13 1 0
BITMAP
04
0c
10
00
3c
7e
c3
ff
ff
c0
e7
7e
3c
ENDCHAR
STARTCHAR eogonek
ENCODING 234
SWIDTH 556 0
DWIDTH 10 0
BBX 8 13 1 -4
BITMAP
3c
7e
c3
ff
ff
c0
e7
7e
3c
10
20
24
38
ENDCHAR
STARTCHAR ediaeresis
ENCODING 235
SWIDTH 556 0
DWIDTH 10 0
BBX 8 12 1 0
BITMAP
36
36
00
3c
7e
c3
ff
ff
c0
e7
7e
3c
ENDCHAR
STARTCHAR ecaron
ENCODING 236
SWIDTH 556 0
DWIDTH 10 0
BBX 8 13 1 0
BITMAP
44
38
10
00
3c
7e
c3
ff
ff
c0
e7
7e
3c
ENDCHAR
STARTCHAR iacute
ENCODING 237
SWIDTH 278 0
DWIDTH 4 0
BBX 3 13 1 0
BITMAP
20
60
80
00
c0
c0
c0
c0
c0
c0
c0
c0
c0
ENDCHAR
STARTCHAR icircumflex
ENCODING 238
SWIDTH 278 0
DWIDTH 4 0
BBX 5 13 0 0
BITMAP
20
70
88
00
60
60
60
60
60
60
60
60
60
ENDCHAR
STARTCHAR dcaron
ENCODING 239
SWIDTH 780 0
DWIDTH 13 0
BBX 11 13 1 0
BITMAP
0060
0360
0320
0340
3f00
7f00
e700
c300
c300
c300
e700
7f00
3b00
ENDCHAR
STARTCHAR dstroke
ENCODING 240
SWIDTH 780 0
DWIDTH 13 0
BBX 11 12 1 0
BITMAP
0300
1fe0
0300
3f00
7f00
e700
c300
c300
c300
e700
7f00
3b00
ENDCHAR
STARTCHAR nacute
ENCODING 241
SWIDTH 611 0
DWIDTH 10 0
BBX 8 13 1 0
BITMAP
04
0c
10
00
de
ff
e3
c3
c3
c3
c3
c3
c3
ENDCHAR
STARTCHAR ncaron
ENCODING 242
SWIDTH 611 0
DWIDTH 10 0
BBX 8 13 1 0
BITMAP
44
38
10
00
de
ff
e3
c3
c3
c3
c3
c3
c3
ENDCHAR
STARTCHAR oacute
ENCODING 243
SWIDTH 611 0
DWIDTH 10 0
BBX 8 13 1 0
BITMAP
08
18
20
00
3c
7e
e7
c3
c3
c3
e7
7e
3c
ENDCHAR
STARTCHAR ocircumflex
ENCODING 244
SWIDTH 611 0
DWIDTH 10 0
BBX 8 13 1 0
BITMAP
10
38
44
00
3c
7e
e7
c3
c3
c3
e7
7e
3c
ENDCHAR
STARTCHAR odoubleacute
ENCODING 245
SWIDTH 611 0
DWIDTH 10 0
BBX 8 13 1 0
BITMAP
1b
12
24
00
3c
7e
e7
c3
c3
c3
e7
7e
3c
ENDCHAR
STARTCHAR odiaeresis
ENCODING 246
SWIDTH 611 0
DWIDTH 10 0
BBX 8 12 1 0
BITMAP
6c
6c
00
3c
7e
e7
c3
c3
c3
e7
7e
3c
ENDCHAR
STARTCHAR division
ENCODING 247
SWIDTH 584 0
DWIDTH 10 0
BBX 8 8 1 0
BITMAP
18
18
00
ff
ff
00
18
18
ENDCHAR
STARTCHAR rcaron
ENCODING 248
SWIDTH 389 0
DWIDTH 6 0
BBX 5 13 1 0
BITMAP
88
70
20
00
d8
f8
e0
c0
c0
c0
c0
c0
c0
ENDCHAR
STARTCHAR uring
ENCODING 249
SWIDTH 611 0
DWIDTH 10 0
BBX 8 14 1 0
BITMAP
10
28
28
10
00
c3
c3
c3
c3
c3
c3
c7
ff
7b
ENDCHAR
STARTCHAR uacute
ENCODING 250
SWIDTH 611 0
DWIDTH 10 0
BBX 8 13 1 0
BITMAP
08
18
20
00
c3
c3
c3
c3
c3
c3
c7
ff
7b
ENDCHAR
STARTCHAR udoubleacute
ENCODING 251
SWIDTH 611 0
DWIDTH 10 0
BBX 8 13 1 0
BITMAP
1b
12
24
00
c3
c3
c3
c3
c3
c3
c7
ff
7b
ENDCHAR
STARTCHAR udiaeresis
ENCODING 252
SWIDTH 611 0
DWIDTH 10 0
BBX 8 12 1 0
BITMAP
6c
6c
00
c3
c3
c3
c3
c3
c3
c7
ff
7b
ENDCHAR
STARTCHAR yacute
ENCODING 253
SWIDTH 556 0
DWIDTH 9 0
BBX 8 17 0 -4
BITMAP
04
0c
10
00
c3
c3
63
66
36
36
3c
1c
18
18
18
70
60
ENDCHAR
STARTCHAR tcedilla
ENCODING 254
SWIDTH 333 0
DWIDTH 6 0
BBX 5 15 0 -4
BITMAP
30
30
78
78
30
30
30
30
30
38
18
20
30
98
70
ENDCHAR
STARTCHAR abovedot
ENCODING 255
SWIDTH 333 0
DWIDTH 6 0
BBX 2 2 1 10
BITMAP
c0
c0
ENDCHAR
ENDFONT
